<?xml version="1.0" encoding="UTF-8" standalone="no"?>
<svg
   id="svg8796"
   version="1.1"
   viewBox="0 0 48.000122 51.20001"
   height="13.546669mm"
   width="12.700032mm"
   xmlns="http://www.w3.org/2000/svg"
   xmlns:svg="http://www.w3.org/2000/svg"
   xmlns:rdf="http://www.w3.org/1999/02/22-rdf-syntax-ns#"
   xmlns:cc="http://creativecommons.org/ns#"
   xmlns:dc="http://purl.org/dc/elements/1.1/">
  <title
     id="title13408">Vector Playing Cards - Numbers &amp; Letters</title>
  <defs
     id="defs8790" />
  <metadata
     id="metadata8793">
    <rdf:RDF>
      <cc:Work
         rdf:about="">
        <dc:format>image/svg+xml</dc:format>
        <dc:type
           rdf:resource="http://purl.org/dc/dcmitype/StillImage" />
        <dc:title>Vector Playing Cards - Numbers &amp; Letters</dc:title>
        <dc:creator>
          <cc:Agent>
            <dc:title>Chris Aguilar</dc:title>
          </cc:Agent>
        </dc:creator>
        <dc:rights>
          <cc:Agent>
            <dc:title>Copyright 2011,2019</dc:title>
          </cc:Agent>
        </dc:rights>
        <dc:publisher>
          <cc:Agent>
            <dc:title>Chris Aguilar</dc:title>
          </cc:Agent>
        </dc:publisher>
        <dc:description>Vectors Playing Card Numbers &amp; Letters</dc:description>
        <dc:contributor>
          <cc:Agent>
            <dc:title>Chris Aguilar</dc:title>
          </cc:Agent>
        </dc:contributor>
        <dc:date>11/26/2016</dc:date>
        <dc:identifier>52 Vector Poker Standard Playing Card Faces Version 3.0</dc:identifier>
        <cc:license
           rdf:resource="http://creativecommons.org/licenses/by-sa/4.0/" />
        <dc:source>https://totalnonsense.com/open-source-vector-playing-cards/</dc:source>
        <dc:language>English</dc:language>
        <dc:subject>
          <rdf:Bag>
            <rdf:li>Vectors Playing Card Numbers &amp; Letters</rdf:li>
          </rdf:Bag>
        </dc:subject>
      </cc:Work>
      <cc:License
         rdf:about="http://creativecommons.org/licenses/by-sa/4.0/">
        <cc:permits
           rdf:resource="http://creativecommons.org/ns#Reproduction" />
        <cc:permits
           rdf:resource="http://creativecommons.org/ns#Distribution" />
        <cc:requires
           rdf:resource="http://creativecommons.org/ns#Notice" />
        <cc:requires
           rdf:resource="http://creativecommons.org/ns#Attribution" />
        <cc:permits
           rdf:resource="http://creativecommons.org/ns#DerivativeWorks" />
        <cc:requires
           rdf:resource="http://creativecommons.org/ns#ShareAlike" />
      </cc:License>
    </rdf:RDF>
  </metadata>
  <g
     transform="translate(-1114.228,-105.21545)"
     id="layer1">
    <g
       transform="translate(478.26573,14.70392)"
       style="fill:#000000;fill-opacity:1;stroke:none"
       id="use18356">
      <path
         style="fill:#000000;fill-opacity:1;stroke:none;stroke-width:1.06667"
         d="m 659.95816,90.511556 c -10.47286,0.22714 -15.16896,12.003484 -7.4127,21.148494 1.12491,1.3339 1.24096,2.09937 -0.8192,0.8181 -5.22208,-3.48762 -15.2352,-1.19488 -15.74795,9.46739 -0.63338,13.13743 17.74625,16.92268 21.19723,2.95309 0.18219,-1.4739 1.38155,-1.44026 1.09238,0.65186 -0.31467,5.67834 -2.09024,10.9856 -4.53078,16.16106 4.11339,0 8.7104,0 12.45046,0 -2.44043,-5.17546 -4.21611,-10.48272 -4.53078,-16.16106 -0.28917,-2.09212 0.91019,-2.12576 1.09238,-0.65186 3.45098,13.96959 21.83061,10.18434 21.19722,-2.95309 -0.51264,-10.66227 -10.52586,-12.95501 -15.74794,-9.46739 -2.06016,1.28127 -1.94411,0.51579 -0.8192,-0.8181 7.75626,-9.14501 3.06016,-20.921334 -7.41259,-21.148494 0,-6e-5 0,5e-5 -0.0107,0 z"
         id="path1195" />
    </g>
  </g>
</svg>
